<svg xmlns="http://www.w3.org/2000/svg" xmlns:xlink="http://www.w3.org/1999/xlink" width="100" height="100" viewBox="0 0 100 100"><g><g transform="translate(50 50) scale(0.69 0.69) rotate(0) translate(-50 -50)" style="fill:#000000"><svg fill="#000000" xmlns:x="http://ns.adobe.com/Extensibility/1.0/" xmlns:i="http://ns.adobe.com/AdobeIllustrator/10.0/" xmlns:graph="http://ns.adobe.com/Graphs/1.0/" xmlns="http://www.w3.org/2000/svg" xmlns:xlink="http://www.w3.org/1999/xlink" version="1.1" x="0px" y="0px" viewBox="0 0 600 600" style="enable-background:new 0 0 600 600;" xml:space="preserve"><style type="text/css">
	.st0{fill-rule:evenodd;clip-rule:evenodd;}
</style><g><g i:extraneous="self"><path class="st0" d="M343.8,312.5c1.1-1,2.2-1.9,3.3-2.9c23.7-20.3,49.5-41.7,75.9-58.3    c16.2-10.1,46.9-27.8,63.6-9.7c16.7,18.1-3.4,47.3-14.7,62.6c-6,8.1-12.4,16-19.1,23.8c24.2,6.7,60.1,20.3,60.1,48.6    c0,7-0.8,13.9-2.4,20.6c-19.6,81-145,89.2-210.5,89.2c-65.5,0-190.9-8.1-210.5-89.2c-1.6-6.8-2.4-13.7-2.4-20.6    c0-61.8,173.2-65.1,212.9-65.1c9.4,0,18.7,0.1,28.1,0.5L343.8,312.5L343.8,312.5z M141.1,386.5c35.5-8.5,83.3-14.2,136.5-15.4    c6.9-6.4,13.8-12.8,20.8-19.1c-92.8,0.1-167.7,11.6-167.7,25.6C130.6,380.7,134.3,383.7,141.1,386.5L141.1,386.5z M270.2,378    c-45.6,1.3-86.6,5.6-118.4,12c21.2,5.8,57,10.2,99.8,12.2c1.8-6.1,5.3-11.8,10.7-16.8C264.9,382.9,267.5,380.4,270.2,378    L270.2,378z M407,377.6c18.8,2.5,35.9,5.7,50.8,9.3c7.4-2.9,11.5-6,11.5-9.3c0-6.7-17.1-12.8-45-17.4    c-5.3,5.4-10.5,10.7-15.7,15.9L407,377.6L407,377.6z M447.1,390.3c-13.6-2.8-29-5.2-45.7-7.1c-5.7,5.6-11.5,11.2-17.3,16.7    C410.3,397.6,432.1,394.3,447.1,390.3L447.1,390.3z M361.5,401.5c58.2-54.7,133.6-130.9,115.3-150.7    C452.9,224.9,320.5,351.1,272,395.9c-2.3,2.1-4,4.4-5.3,6.9c10.8,0.3,21.9,0.5,33.3,0.5C321.7,403.2,342.5,402.6,361.5,401.5    L361.5,401.5z M327.7,325.5c-108-3.5-227.1,13.6-227.1,51.2c0,53.2,52.1,96.3,199.4,96.3s199.4-43.1,199.4-96.3    c0-16.1-22-28.5-55.6-37.1c-3.3,3.6-6.6,7.1-9.9,10.6c30.9,7.2,49.8,16.8,49.8,27.4c0,22.1-82.3,40-183.7,40s-183.7-17.9-183.7-40    s82.3-40,183.7-40c4.7,0,9.4,0,14,0.1C318.6,333.6,323.1,329.5,327.7,325.5L327.7,325.5z M209,261.7c7,0,12.6,5.6,12.6,12.6    c0,7-5.6,12.6-12.6,12.6c-7,0-12.6-5.6-12.6-12.6C196.4,267.3,202,261.7,209,261.7L209,261.7z M245.6,183.2c4.8,0,8.7,3.9,8.7,8.7    c0,4.8-3.9,8.7-8.7,8.7c-4.8,0-8.7-3.9-8.7-8.7C236.9,187.1,240.8,183.2,245.6,183.2L245.6,183.2z M305.6,234.4    c5.8,0,10.5,4.7,10.5,10.5c0,5.8-4.7,10.5-10.5,10.5c-5.8,0-10.5-4.7-10.5-10.5C295.1,239.1,299.8,234.4,305.6,234.4L305.6,234.4z     M209,248.2c14.4,0,26,11.7,26,26c0,14.4-11.7,26-26,26s-26-11.7-26-26C182.9,259.9,194.6,248.2,209,248.2L209,248.2z     M245.6,169.7c12.2,0,22.2,9.9,22.2,22.2c0,12.2-9.9,22.2-22.2,22.2c-12.2,0-22.2-9.9-22.2-22.2    C223.5,179.7,233.4,169.7,245.6,169.7L245.6,169.7z M305.6,221c13.2,0,24,10.7,24,24s-10.7,24-24,24c-13.2,0-24-10.7-24-24    C281.7,231.7,292.4,221,305.6,221L305.6,221z"></path></g></g></svg></g></g></svg>