<svg xmlns="http://www.w3.org/2000/svg" xmlns:xlink="http://www.w3.org/1999/xlink" width="100" height="100" viewBox="0 0 100 100"><g><g transform="translate(50 50) scale(0.69 0.69) rotate(0) translate(-50 -50)" style="fill:#000000"><svg fill="#000000" xmlns="http://www.w3.org/2000/svg" data-name="Layer 1" viewBox="0 0 100 100" x="0px" y="0px"><title>101all</title><path d="M93.62,14.75a2,2,0,0,0-2-2H51.12a2,2,0,0,0-2,2v19.6A22.28,22.28,0,0,0,69.37,56.5V71.25H55.48L36.11,50.07a2,2,0,0,0-1.48-.65H10.56a2,2,0,0,0-1.83,1.19,1.94,1.94,0,0,0-.07.25H8.59L7.1,60a54.8,54.8,0,0,0,.27,19.19L8.6,85.63a2,2,0,0,0,2,1.62H41.23v0l.26,0H65.57A2,2,0,0,0,67,83.9l-7.91-8.65H87.74v-4H73.37V56.5A22.28,22.28,0,0,0,93.62,34.35ZM11.29,78.43A50.86,50.86,0,0,1,11,60.64l.79-4.86L37,83.25H12.22Zm31.08,4.82L15.1,53.42H33.75L61,83.25Zm47.24-66.5V28H53.12V16.75ZM71.37,52.6A18.27,18.27,0,0,1,53.12,34.35V32h36.5v2.35A18.27,18.27,0,0,1,71.37,52.6Z"></path><ellipse cx="27.57" cy="60.05" rx="1.5" ry="2.35" transform="translate(-25.17 20.25) rotate(-28.3)"></ellipse><ellipse cx="40.61" cy="66.29" rx="1.85" ry="2.91" transform="translate(-27.82 29.41) rotate(-30.19)"></ellipse><ellipse cx="39.8" cy="75.61" rx="1.5" ry="2.35" transform="translate(-31.09 27.9) rotate(-28.3)"></ellipse></svg></g></g></svg>